<?xml version="1.0" encoding="UTF-8" standalone="no"?>
<svg
   xmlns:dc="http://purl.org/dc/elements/1.1/"
   xmlns:cc="http://creativecommons.org/ns#"
   xmlns:rdf="http://www.w3.org/1999/02/22-rdf-syntax-ns#"
   xmlns:svg="http://www.w3.org/2000/svg"
   xmlns="http://www.w3.org/2000/svg"
   xmlns:xlink="http://www.w3.org/1999/xlink"
   xmlns:sodipodi="http://sodipodi.sourceforge.net/DTD/sodipodi-0.dtd"
   xmlns:inkscape="http://www.inkscape.org/namespaces/inkscape"
   inkscape:version="1.0 (4035a4fb49, 2020-05-01)"
   sodipodi:docname="cubeSide.svg"
   xml:space="preserve"
   style="enable-background:new 0 0 1700.8 1133.9;"
   viewBox="0 0 1700.8 1133.9"
   y="0px"
   x="0px"
   id="Layer_1"
   version="1.1"><metadata
   id="metadata27"><rdf:RDF><cc:Work
       rdf:about=""><dc:format>image/svg+xml</dc:format><dc:type
         rdf:resource="http://purl.org/dc/dcmitype/StillImage" /><dc:title></dc:title></cc:Work></rdf:RDF></metadata><defs
   id="defs25" /><sodipodi:namedview
   inkscape:current-layer="g18"
   inkscape:window-maximized="1"
   inkscape:window-y="-8"
   inkscape:window-x="-8"
   inkscape:cy="326.51448"
   inkscape:cx="594.84746"
   inkscape:zoom="1.2429445"
   inkscape:snap-object-midpoints="true"
   inkscape:snap-bbox-midpoints="true"
   inkscape:snap-bbox-edge-midpoints="true"
   inkscape:bbox-nodes="true"
   inkscape:bbox-paths="true"
   inkscape:snap-bbox="true"
   showgrid="false"
   id="namedview23"
   inkscape:window-height="1017"
   inkscape:window-width="1920"
   inkscape:pageshadow="2"
   inkscape:pageopacity="0"
   guidetolerance="10"
   gridtolerance="10"
   objecttolerance="10"
   borderopacity="1"
   bordercolor="#666666"
   pagecolor="#ffffff" />
<style
   id="style2"
   type="text/css">
	.st0{fill:none;stroke:#FF0000;stroke-width:1.000000e-003;stroke-miterlimit:10;}
	.st1{fill:none;stroke:#FF0000;stroke-width:1.076000e-003;stroke-miterlimit:10;}
</style>
<circle
   id="circle4"
   r="4.3"
   cy="161.7"
   cx="763.6"
   class="st0" />
<circle
   id="circle6"
   r="4.3"
   cy="161.7"
   cx="261.9"
   class="st0" />
<g
   id="g18">
	
	
	<path
   sodipodi:nodetypes="cscscscsscscscscscscscscscscscscscscscsscsccscscscscscscscscscscscscscsscscscscscscscscscscscscscscscsscscscscscscscscscscscsc"
   id="path12"
   d="m 738.8,272.2 c 8.2,0 14.9,-6.7 14.9,-14.9 0,-8.2 -6.7,-14.9 -14.9,-14.9 8.2,0 14.9,-6.7 14.9,-14.9 0,-8.2 -6.7,-14.9 -14.9,-14.9 8.2,0 14.9,-6.7 14.9,-14.9 0,-8.2 -6.7,-14.9 -14.9,-14.9 8.2,0 14.9,-6.7 14.9,-14.9 0,-8.2 -6.7,-14.9 -14.9,-14.9 -8.2,0 -14.9,6.7 -14.9,14.9 0,-8.2 -6.7,-14.9 -14.9,-14.9 -8.2,0 -14.9,6.7 -14.9,14.9 0,-8.2 -6.7,-14.9 -14.9,-14.9 -8.2,0 -14.9,6.7 -14.9,14.9 0,-8.2 -6.7,-14.9 -14.9,-14.9 -8.2,0 -14.9,6.7 -14.9,14.9 0,-8.2 -6.7,-14.9 -14.9,-14.9 -8.2,0 -14.9,6.7 -14.9,14.9 0,-8.2 -6.7,-14.9 -14.9,-14.9 -8.2,0 -14.9,6.7 -14.9,14.9 0,-8.2 -6.7,-14.9 -14.9,-14.9 -8.2,0 -14.9,6.7 -14.9,14.9 0,-8.2 -6.7,-14.9 -14.9,-14.9 -8.2,0 -14.9,6.7 -14.9,14.9 0,-8.2 -6.7,-14.9 -14.9,-14.9 -8.2,0 -14.9,6.7 -14.9,14.9 0,-8.2 -6.7,-14.9 -14.9,-14.9 -8.2,0 -14.9,6.7 -14.9,14.9 0,-8.2 -6.7,-14.9 -14.9,-14.9 -8.2,0 -14.9,6.7 -14.9,14.9 0,-8.2 -6.7,-14.9 -14.9,-14.9 -8.2,0 -14.9,6.7 -14.9,14.9 0,-8.2 -6.7,-14.9 -14.9,-14.9 -8.2,0 -14.9,6.7 -14.9,14.9 0,-8.2 -6.7,-14.9 -14.9,-14.9 -8.2,0 -14.9,6.7 -14.9,14.9 0,-8.2 -6.7,-14.9 -14.9,-14.9 -8.2,0 -14.9,6.7 -14.9,14.9 0,-8.2 -6.7,-14.9 -14.9,-14.9 -8.2,0 -14.9,6.7 -14.9,14.9 0,8.2 6.7,14.9 14.9,14.9 -8.2,0 -14.9,6.7 -14.9,14.9 0,1.1 0.1,2.2 0.4,3.2 -1.49006,6.27834 -4.95273,19.3 1.5,19.3 -1.2,2.1 -1.9,4.6 -1.9,7.2 0,8.2 6.7,14.9 14.9,14.9 -8.2,0 -14.9,6.7 -14.9,14.9 0,8.2 6.7,14.9 14.9,14.9 -8.2,0 -14.9,6.7 -14.9,14.9 0,8.2 6.7,14.9 14.9,14.9 -8.2,0 -14.9,6.7 -14.9,14.9 0,8.2 6.7,14.9 14.9,14.9 -8.2,0 -14.9,6.7 -14.9,14.9 0,8.2 6.7,14.9 14.9,14.9 -8.2,0 -14.9,6.7 -14.9,14.9 0,8.2 6.7,14.9 14.9,14.9 -8.2,0 -14.9,6.7 -14.9,14.9 0,8.2 6.7,14.9 14.9,14.9 -8.2,0 -14.9,6.7 -14.9,14.9 0,8.2 6.7,14.9 14.9,14.9 -8.2,0 -14.9,6.7 -14.9,14.9 0,8.2 6.7,14.9 14.9,14.9 -8.2,0 -14.9,6.7 -14.9,14.9 0,8.2 6.7,14.9 14.9,14.9 -8.2,0 -14.9,6.7 -14.9,14.9 0,8.2 6.7,14.9 14.9,14.9 -8.2,0 -14.9,6.7 -14.9,14.9 0,8.2 6.7,14.9 14.9,14.9 -8.2,0 -14.9,6.7 -14.9,14.9 0,8.2 6.7,14.9 14.9,14.9 -8.2,0 -14.9,6.7 -14.9,14.9 0,8.2 6.7,14.9 14.9,14.9 8.2,0 14.9,-6.7 14.9,-14.9 0,8.2 6.7,14.9 14.9,14.9 8.2,0 14.9,-6.7 14.9,-14.9 0,8.2 6.7,14.9 14.9,14.9 8.2,0 14.9,-6.7 14.9,-14.9 0,8.2 6.7,14.9 14.9,14.9 8.2,0 14.9,-6.7 14.9,-14.9 0,8.2 6.7,14.9 14.9,14.9 8.2,0 14.9,-6.7 14.9,-14.9 0,8.2 6.7,14.9 14.9,14.9 8.2,0 14.9,-6.7 14.9,-14.9 0,8.2 6.7,14.9 14.9,14.9 8.2,0 14.9,-6.7 14.9,-14.9 0,8.2 6.7,14.9 14.9,14.9 8.2,0 14.9,-6.7 14.9,-14.9 0,8.2 6.7,14.9 14.9,14.9 8.2,0 14.9,-6.7 14.9,-14.9 0,8.2 6.7,14.9 14.9,14.9 8.2,0 14.9,-6.7 14.9,-14.9 0,8.2 6.7,14.9 14.9,14.9 8.2,0 14.9,-6.7 14.9,-14.9 0,8.2 6.7,14.9 14.9,14.9 8.2,0 14.9,-6.7 14.9,-14.9 0,8.2 6.7,14.9 14.9,14.9 8.2,0 14.9,-6.7 14.9,-14.9 0,8.2 6.7,14.9 14.9,14.9 8.2,0 14.9,-6.7 14.9,-14.9 0,8.2 6.7,14.9 14.9,14.9 8.2,0 14.9,-6.7 14.9,-14.9 0,8.2 6.7,14.9 14.9,14.9 8.2,0 14.9,-6.7 14.9,-14.9 0,-8.2 -6.7,-14.9 -14.9,-14.9 8.2,0 14.9,-6.7 14.9,-14.9 0,-8.2 -6.7,-14.9 -14.9,-14.9 8.2,0 14.9,-6.7 14.9,-14.9 0,-8.2 -6.7,-14.9 -14.9,-14.9 8.2,0 14.9,-6.7 14.9,-14.9 0,-8.2 -6.7,-14.9 -14.9,-14.9 8.2,0 14.9,-6.7 14.9,-14.9 0,-8.2 -6.7,-14.9 -14.9,-14.9 8.2,0 14.9,-6.7 14.9,-14.9 0,-8.2 -6.7,-14.9 -14.9,-14.9 8.2,0 14.9,-6.7 14.9,-14.9 0,-8.2 -6.7,-14.9 -14.9,-14.9 8.2,0 14.9,-6.7 14.9,-14.9 0,-8.2 -6.7,-14.9 -14.9,-14.9 8.2,0 14.9,-6.7 14.9,-14.9 0,-8.2 -6.7,-14.9 -14.9,-14.9 8.2,0 14.9,-6.7 14.9,-14.9 0,-8.2 -6.7,-14.9 -14.9,-14.9 8.2,0 14.9,-6.7 14.9,-14.9 0,-8.2 -6.7,-14.9 -14.9,-14.9 8.2,0 14.9,-6.7 14.9,-14.9 0,-8.1 -6.7,-14.8 -14.9,-14.8 z"
   class="st0" />
	<circle
   id="circle14"
   r="4.3"
   cy="620.9"
   cx="763.6"
   class="st0" />
	<circle
   id="circle16"
   r="4.3"
   cy="620.9"
   cx="261.9"
   class="st0" />
<rect
   y="183.83202"
   x="303.34039"
   height="113.04189"
   width="113.04188"
   id="rect852"
   style="fill:none;stroke:#ff0000;stroke-width:0.343935;stroke-miterlimit:4;stroke-dasharray:none;stroke-opacity:1" /><rect
   style="fill:none;stroke:#ff0000;stroke-width:0.343935;stroke-miterlimit:4;stroke-dasharray:none;stroke-opacity:1"
   id="rect852-3"
   width="113.04188"
   height="113.04189"
   x="428.66281"
   y="183.64597" /><rect
   style="fill:none;stroke:#ff0000;stroke-width:0.343935;stroke-miterlimit:4;stroke-dasharray:none;stroke-opacity:1"
   id="rect852-7"
   width="113.04188"
   height="113.04189"
   x="551.75763"
   y="184.45049" /><rect
   inkscape:tile-y0="184.05095"
   inkscape:tile-x0="670.3961"
   inkscape:tile-h="19.999999"
   inkscape:tile-w="19.999999"
   inkscape:tile-cy="194.05095"
   inkscape:tile-cx="680.3961"
   y="184.21202"
   x="670.55719"
   height="19.677866"
   width="19.677866"
   id="rect922"
   style="fill:none;stroke:#ff0000;stroke-width:0.322134;stroke-miterlimit:4;stroke-dasharray:none;stroke-opacity:1" /><use
   id="use1082"
   xlink:href="#rect922"
   inkscape:tiled-clone-of="#rect922"
   y="0"
   x="0" /><use
   id="use1084"
   transform="translate(0,23.999999)"
   xlink:href="#rect922"
   inkscape:tiled-clone-of="#rect922"
   y="0"
   x="0" /><use
   id="use1086"
   transform="translate(0,47.999999)"
   xlink:href="#rect922"
   inkscape:tiled-clone-of="#rect922"
   y="0"
   x="0" /><use
   id="use1088"
   transform="translate(0,71.999998)"
   xlink:href="#rect922"
   inkscape:tiled-clone-of="#rect922"
   y="0"
   x="0" /><use
   id="use1090"
   transform="translate(0,95.999997)"
   xlink:href="#rect922"
   inkscape:tiled-clone-of="#rect922"
   y="0"
   x="0" /><use
   id="use1092"
   transform="translate(23.999999)"
   xlink:href="#rect922"
   inkscape:tiled-clone-of="#rect922"
   y="0"
   x="0" /><use
   id="use1094"
   transform="translate(23.999999,23.999999)"
   xlink:href="#rect922"
   inkscape:tiled-clone-of="#rect922"
   y="0"
   x="0" /><use
   id="use1096"
   transform="translate(23.999999,47.999999)"
   xlink:href="#rect922"
   inkscape:tiled-clone-of="#rect922"
   y="0"
   x="0" /><use
   id="use1098"
   transform="translate(23.999999,71.999998)"
   xlink:href="#rect922"
   inkscape:tiled-clone-of="#rect922"
   y="0"
   x="0" /><use
   id="use1100"
   transform="translate(23.999999,95.999997)"
   xlink:href="#rect922"
   inkscape:tiled-clone-of="#rect922"
   y="0"
   x="0" /></g>
<polygon
   id="polygon20"
   points="867.1,298.2 867.1,203.7 857.1,203.7 857.1,109.2 166.1,109.2 158.4,109.2 158.4,203.7 168.3,203.7   168.3,298.2 158.4,298.2 158.4,392.7 168.3,392.7 168.3,487.2 158.4,487.2 158.4,581.7 168.3,581.7 168.3,676.2 867.1,676.2   867.1,672.8 867.1,581.7 857.1,581.7 857.1,487.2 867.1,487.2 867.1,392.7 857.1,392.7 857.1,298.2 "
   class="st1" />
</svg>
